# OBJ written from F:\Projets\Character game asset\video game\Game asset\INT\plants and pot\Pot\LP\pot_LP_uv_smoth.obj
# Units	meters

o Pot_LP _Uv
v -0.236844 0.008156 -0.236844
v -0.236844 0.008156 0.236844
v -0.326845 0.819844 0.326845
v -0.326845 0.819844 -0.326845
v 0.236844 0.008156 -0.236844
v 0.236844 0.008156 0.236844
v 0.326845 0.819844 0.326845
v 0.326845 0.819844 -0.326845
v 0.261476 0.819844 0.261476
v 0.261476 0.819844 -0.261476
v -0.261476 0.819844 -0.261476
v -0.261476 0.819844 0.261476
v 0.237943 0.698844 0.237943
v 0.237943 0.698844 -0.237943
v -0.237943 0.698844 -0.237943
v -0.237943 0.698844 0.237943
v 0.254599 0.698844 0.254599
v 0.254612 0.699335 -0.254618
v -0.254598 0.69879 -0.254596
v -0.254599 0.698844 0.254599
v -0.254243 0.701059 -0.127555
v 0.254698 0.70192 -0.127419
v -0.254585 0.700253 -0.00015866
v 0.254528 0.697921 4.905e-005
v -0.254847 0.696584 0.12733
v 0.254599 0.698844 0.127299
v -0.127161 0.692834 -0.12681
v -0.127219 0.695098 -0.25435
v 0.00018131 0.70276 -0.127124
v 5.915e-005 0.696084 -0.254373
v 0.127859 0.708276 -0.127544
v 0.127398 0.700526 -0.254653
v -0.126753 0.69528 -0.00014328
v -0.00019379 0.719145 0.00034616
v 0.12822 0.711016 0.00052773
v -0.12637 0.691654 0.126831
v 0.00021046 0.713282 0.128519
v 0.127947 0.712318 0.128375
v -0.127201 0.697421 0.25458
v 2.76e-006 0.7009 0.25481
v 0.127345 0.698449 0.25474
v -0.190926 0.698969 -0.254522
v -0.25475 0.69609 -0.191028
v -0.191015 0.691805 -0.12705
v -0.127288 0.696006 -0.190609
v -0.190922 0.694496 -0.190756
v -0.0639236 0.699417 -0.127204
v 0.00041546 0.692723 -0.190431
v -0.0635523 0.694507 -0.254264
v -0.063352 0.694323 -0.190865
v 0.0639153 0.710341 -0.127716
v 0.127648 0.706919 -0.19153
v 0.0638056 0.693938 -0.254691
v 0.0640393 0.700463 -0.191048
v 0.191373 0.706338 -0.127411
v 0.254666 0.701462 -0.19105
v 0.191013 0.701008 -0.25468
v 0.191406 0.707192 -0.191233
v -0.254716 0.69368 -0.0638745
v -0.190879 0.696815 -0.00023294
v -0.126897 0.695248 -0.0633789
v -0.190756 0.694355 -0.0636905
v -0.0627663 0.701747 0.00023246
v -7.266e-005 0.712701 -0.0636295
v -0.063033 0.698687 -0.0631192
v 0.0645152 0.72013 0.0004583
v 0.127704 0.706996 -0.0635047
v 0.0642898 0.71624 -0.063897
v 0.190899 0.699853 0.00026652
v 0.254628 0.699643 -0.063668
v 0.191131 0.702619 -0.0636407
v -0.254615 0.700505 0.0637313
v -0.19087 0.691365 0.127221
v -0.126235 0.690666 0.0633538
v -0.190578 0.696278 0.0636439
v -0.0633019 0.703513 0.126894
v -0.00036086 0.719542 0.0643833
v -0.0619681 0.695864 0.0635882
v 0.0640292 0.706036 0.127414
v 0.128232 0.715561 0.0640601
v 0.0646436 0.718287 0.0647445
v 0.191744 0.707559 0.127779
v 0.254577 0.698641 0.0636568
v 0.190854 0.700496 0.0639876
v -0.254599 0.698844 0.190949
v -0.190984 0.700251 0.25475
v -0.126995 0.702807 0.190887
v -0.190892 0.700761 0.19075
v -0.0634473 0.696708 0.25457
v 0.00048932 0.707537 0.192064
v -0.0630046 0.699395 0.191181
v 0.0637129 0.70182 0.254807
v 0.12736 0.70223 0.191612
v 0.0645377 0.70376 0.191906
v 0.191051 0.701107 0.254835
v 0.254599 0.698844 0.190949
v 0.191686 0.708918 0.192038
vn -0.69857 -0.154917 -0.69857
vn -0.69857 -0.154917 0.69857
vn -0.69857 -0.154917 0.69857
vn -0.69857 -0.154917 -0.69857
vn 0 -1 0
vn 0.69857 -0.154917 0.69857
vn 0.69857 -0.154917 0.69857
vn 0.69857 -0.154917 -0.69857
vn 0.69857 -0.154917 -0.69857
vn 0 1 -7.74933e-007
vn 0 1 7.74933e-007
vn 0.681788 0.265199 -0.681788
vn -0.681788 0.265199 -0.681788
vn -0.681788 0.265199 0.681788
vn 0.681788 0.265199 0.681788
vn 0.0181383 0.999773 0.0111519
vn 0.0146869 0.999004 0.0421393
vn 0.0237111 0.999327 0.0279738
vn -0.00565035 0.999896 0.0132834
vn 0.0109273 0.998357 0.0562522
vn 0.0479724 0.998663 0.0192326
vn 0.0761941 0.997045 0.00977648
vn 0.0294178 0.999543 0.00691679
vn -0.0380425 0.999262 -0.00523356
vn -0.066521 0.996307 -0.0542897
vn -0.00839606 0.99957 -0.0281079
vn -0.0890021 0.989163 -0.116768
vn -0.044481 0.996681 -0.068174
vn -0.0220355 0.999756 0.00156709
vn 0.00897555 0.999899 0.0110333
vn -0.0383651 0.99416 -0.10087
vn -0.0752467 0.99289 -0.0922321
vn 0.0293254 0.999321 -0.0223103
vn -0.0322877 0.996809 -0.0729994
vn -0.0542563 0.993529 -0.0997819
vn -0.0728662 0.995389 -0.0623765
vn 0.0501948 0.998511 0.0213595
vn 0.0364449 0.998486 -0.0411981
vn 0.0690352 0.997298 0.0251017
vn 0.0691378 0.997121 -0.0311316
vn 0.0582588 0.996158 -0.0653869
vn 0.0261801 0.996269 -0.082236
vn 0.019719 0.999541 -0.0229982
vn -0.0414659 0.998857 -0.0237767
vn 0.044428 0.998878 -0.0164247
vn 0.040877 0.998577 -0.034261
vn 0.0356662 0.999291 -0.0120895
vn -0.0266618 0.999444 0.0200238
vn -0.183873 0.982921 0.00749369
vn -0.134084 0.98994 -0.0451646
vn -0.148523 0.988605 -0.024506
vn -0.125261 0.988326 -0.0867259
vn 0.050383 0.998007 -0.0380033
vn 0.0274454 0.996759 -0.0756161
vn 0.14093 0.989458 -0.0333388
vn 0.10119 0.994714 -0.0174356
vn 0.0991402 0.995053 -0.00638777
vn 0.0672355 0.997348 0.027861
vn 0.0341721 0.99934 0.0123312
vn 0.0483841 0.997982 0.0411225
vn 0.0575933 0.997703 0.0356563
vn -0.0317871 0.999264 0.0214895
vn 0.0667567 0.997126 0.0358227
vn 0.0496924 0.998704 -0.0109973
vn 0.0304809 0.998807 -0.0381538
vn -0.0438059 0.997044 -0.0631206
vn -0.150648 0.988473 -0.0150373
vn -0.200519 0.979624 0.0113475
vn -0.0622452 0.995698 0.0686351
vn -0.128225 0.990636 0.0468856
vn 0.0222163 0.994107 0.106101
vn 0.033076 0.99738 0.064337
vn 0.0186953 0.997776 0.0639759
vn 0.10648 0.994288 0.00735614
vn 0.0930315 0.995636 -0.00734733
vn 0.118573 0.992342 -0.0346062
vn 0.115109 0.99277 -0.0340172
vn 0.0561791 0.997842 -0.0339869
vn -0.00320941 0.998699 -0.0508985
vn -0.0117948 0.999566 -0.0269858
vn -0.00021768 0.999038 -0.0438567
vn -0.0260962 0.999651 0.00397525
vn -0.00995128 0.999635 0.025102
vn 0.0190652 0.998315 0.0548109
vn -0.0320488 0.997157 0.0681997
vn -0.0684309 0.996873 0.0395049
vn -0.0378579 0.996784 0.0706323
vn -0.0319703 0.997024 0.070147
vn 0.0305013 0.997902 0.0570982
vn 0.0274748 0.997298 0.0681342
vn -0.0175564 0.997487 0.0686386
vn -0.022052 0.996898 0.0755515
vn 0.0115248 0.996973 0.0768848
vn 0.0393139 0.997818 0.0530496
vn 0.0975506 0.993307 0.0618499
vn 0.123059 0.992079 0.0252157
vt 0.813879 0.515381
vt 0.972646 0.663851
vt 0.776861 0.970949
vt 0.581108 0.787893
vt 0.285632 0.850062
vt 0.145715 0.989979
vt 0.005797 0.850062
vt 0.145714 0.710145
vt 0.475654 0.199096
vt 0.219341 0.449592
vt 0.023587 0.266537
vt 0.316888 0.050627
vt 0.400226 0.618742
vt 0.644767 0.357239
vt 0.031265 0.317978
vt 0.202465 0.478073
vt 0.378144 0.642355
vt 0.553822 0.806639
vt 0.725023 0.966734
vt 0.008374 0.372022
vt 0.169043 0.522269
vt 0.340503 0.682607
vt 0.511965 0.842946
vt 0.672633 0.993192
vt 0.907536 0.004824
vt 0.950639 0.004514
vt 0.950768 0.047753
vt 0.907664 0.047951
vt 0.993697 0.004294
vt 0.993945 0.047318
vt 0.994114 0.090297
vt 0.950992 0.090884
vt 0.907766 0.091154
vt 0.864698 0.091045
vt 0.86437 0.04781
vt 0.821162 0.091169
vt 0.821222 0.047919
vt 0.821361 0.004745
vt 0.864484 0.00488
vt 0.777565 0.091121
vt 0.777875 0.04779
vt 0.734233 0.090981
vt 0.734586 0.047696
vt 0.73494 0.004766
vt 0.778234 0.004523
vt 0.691159 0.090874
vt 0.69145 0.047712
vt 0.64819 0.090619
vt 0.648501 0.047493
vt 0.648775 0.004444
vt 0.691835 0.004614
vt 0.951068 0.133794
vt 0.90779 0.134144
vt 0.994305 0.133529
vt 0.994533 0.176883
vt 0.951362 0.17686
vt 0.907924 0.176999
vt 0.864349 0.177364
vt 0.864479 0.134395
vt 0.820528 0.177767
vt 0.820862 0.134482
vt 0.776971 0.177816
vt 0.777211 0.134342
vt 0.733605 0.177751
vt 0.733876 0.134323
vt 0.69063 0.177465
vt 0.690872 0.134135
vt 0.647584 0.177232
vt 0.647842 0.133888
vt 0.951308 0.220185
vt 0.907798 0.220129
vt 0.994701 0.220286
vt 0.994527 0.263669
vt 0.951192 0.26335
vt 0.907653 0.263016
vt 0.864341 0.263353
vt 0.864613 0.220366
vt 0.820821 0.264188
vt 0.820564 0.22083
vt 0.777367 0.26417
vt 0.776844 0.221192
vt 0.734032 0.264314
vt 0.734007 0.220843
vt 0.690817 0.264053
vt 0.690645 0.22064
vt 0.647849 0.263811
vt 0.647596 0.220583
vt 0.951003 0.30675
vt 0.907667 0.306786
vt 0.994132 0.306854
vt 0.99409 0.349955
vt 0.951001 0.350041
vt 0.907729 0.349984
vt 0.864502 0.349877
vt 0.864315 0.306905
vt 0.821365 0.349971
vt 0.820841 0.307327
vt 0.77806 0.350186
vt 0.777284 0.307646
vt 0.734733 0.350343
vt 0.734693 0.307551
vt 0.691419 0.35018
vt 0.691062 0.307461
vt 0.64838 0.350113
vt 0.648051 0.307037
mtllib pot_LP_uv_smoth.mtl
usemtl Default
g Default
f 1/1/1 2/2/2 3/3/3 4/4/4
f 5/5/5 6/6/5 2/7/5 1/8/5
f 6/9/6 7/10/7 3/11/3 2/12/2
f 8/13/8 5/14/9 1/1/1 4/4/4
f 5/14/9 8/13/8 7/10/7 6/9/6
f 12/15/10 3/11/10 7/10/10 9/16/10
f 9/16/10 7/10/10 8/13/11 10/17/11
f 10/17/11 8/13/11 4/4/11 11/18/11
f 11/18/11 4/4/11 3/3/10 12/19/10
f 16/20/12 12/15/12 9/16/13 13/21/13
f 13/21/13 9/16/13 10/17/14 14/22/14
f 14/22/14 10/17/14 11/18/15 15/23/15
f 15/23/15 11/18/15 12/19/12 16/24/12
usemtl defaultMat
g Group42464
f 28/25/16 42/26/17 46/27/18 45/28/19
f 42/26/17 19/29/20 43/30/21 46/27/18
f 46/27/18 43/30/21 21/31/22 44/32/23
f 45/28/19 46/27/18 44/32/23 27/33/24
f 27/33/24 47/34/25 50/35/26 45/28/19
f 47/34/25 29/36/27 48/37/28 50/35/26
f 50/35/26 48/37/28 30/38/29 49/39/30
f 45/28/19 50/35/26 49/39/30 28/25/16
f 29/36/27 51/40/31 54/41/32 48/37/28
f 51/40/31 31/42/33 52/43/34 54/41/32
f 54/41/32 52/43/34 32/44/35 53/45/36
f 48/37/28 54/41/32 53/45/36 30/38/29
f 31/42/33 55/46/37 58/47/38 52/43/34
f 55/46/37 22/48/39 56/49/40 58/47/38
f 58/47/38 56/49/40 18/50/41 57/51/42
f 52/43/34 58/47/38 57/51/42 32/44/35
f 27/33/24 44/32/23 62/52/43 61/53/44
f 44/32/23 21/31/22 59/54/45 62/52/43
f 62/52/43 59/54/45 23/55/46 60/56/47
f 61/53/44 62/52/43 60/56/47 33/57/48
f 33/57/48 63/58/49 65/59/50 61/53/44
f 63/58/49 34/60/51 64/61/52 65/59/50
f 65/59/50 64/61/52 29/36/27 47/34/25
f 61/53/44 65/59/50 47/34/25 27/33/24
f 34/60/51 66/62/53 68/63/54 64/61/52
f 66/62/53 35/64/55 67/65/56 68/63/54
f 68/63/54 67/65/56 31/42/33 51/40/31
f 64/61/52 68/63/54 51/40/31 29/36/27
f 35/64/55 69/66/57 71/67/58 67/65/56
f 69/66/57 24/68/59 70/69/60 71/67/58
f 71/67/58 70/69/60 22/48/39 55/46/37
f 67/65/56 71/67/58 55/46/37 31/42/33
f 33/57/48 60/56/47 75/70/61 74/71/62
f 60/56/47 23/55/46 72/72/63 75/70/61
f 75/70/61 72/72/63 25/73/64 73/74/65
f 74/71/62 75/70/61 73/74/65 36/75/66
f 36/75/66 76/76/67 78/77/68 74/71/62
f 76/76/67 37/78/69 77/79/70 78/77/68
f 78/77/68 77/79/70 34/60/51 63/58/49
f 74/71/62 78/77/68 63/58/49 33/57/48
f 37/78/69 79/80/71 81/81/72 77/79/70
f 79/80/71 38/82/73 80/83/74 81/81/72
f 81/81/72 80/83/74 35/64/55 66/62/53
f 77/79/70 81/81/72 66/62/53 34/60/51
f 38/82/73 82/84/75 84/85/76 80/83/74
f 82/84/75 26/86/77 83/87/78 84/85/76
f 84/85/76 83/87/78 24/68/59 69/66/57
f 80/83/74 84/85/76 69/66/57 35/64/55
f 36/75/66 73/74/65 88/88/79 87/89/80
f 73/74/65 25/73/64 85/90/81 88/88/79
f 88/88/79 85/90/81 20/91/82 86/92/83
f 87/89/80 88/88/79 86/92/83 39/93/84
f 39/93/84 89/94/85 91/95/86 87/89/80
f 89/94/85 40/96/87 90/97/88 91/95/86
f 91/95/86 90/97/88 37/78/69 76/76/67
f 87/89/80 91/95/86 76/76/67 36/75/66
f 40/96/87 92/98/89 94/99/90 90/97/88
f 92/98/89 41/100/91 93/101/92 94/99/90
f 94/99/90 93/101/92 38/82/73 79/80/71
f 90/97/88 94/99/90 79/80/71 37/78/69
f 41/100/91 95/102/93 97/103/94 93/101/92
f 95/102/93 17/104/95 96/105/96 97/103/94
f 97/103/94 96/105/96 26/86/77 82/84/75
f 93/101/92 97/103/94 82/84/75 38/82/73
